<svg id="Capa_1" data-name="Capa 1" xmlns="http://www.w3.org/2000/svg" xmlns:xlink="http://www.w3.org/1999/xlink" viewBox="0 0 1920 1080"><defs><style>.cls-1{fill:url(#Безымянный_градиент_299);}.cls-2{fill:#faf1c2;}.cls-3{fill:#fff;}.cls-4{fill:url(#Безымянный_градиент_290);}.cls-5{fill:url(#Безымянный_градиент_290-2);}.cls-6{fill:url(#Безымянный_градиент_290-3);}.cls-7{fill:#b1e4ee;}.cls-8{fill:url(#Безымянный_градиент_290-4);}.cls-9{fill:url(#Безымянный_градиент_290-5);}.cls-10{fill:url(#Безымянный_градиент_290-6);}.cls-11{fill:url(#Безымянный_градиент_305);}.cls-12{fill:#d57f22;}.cls-13{fill:url(#Безымянный_градиент_252);}</style><linearGradient id="Безымянный_градиент_299" x1="-9.4" y1="169.43" x2="1927.4" y2="169.43" gradientUnits="userSpaceOnUse"><stop offset="0" stop-color="#f4d787"/><stop offset="0.18" stop-color="#f3d88b"/><stop offset="0.37" stop-color="#f0db98"/><stop offset="0.56" stop-color="#ebe0ac"/><stop offset="0.76" stop-color="#e4e8c9"/><stop offset="0.95" stop-color="#dcf1ee"/><stop offset="1" stop-color="#d9f4f9"/></linearGradient><linearGradient id="Безымянный_градиент_290" x1="1466.52" y1="764.45" x2="1466.52" y2="280" gradientUnits="userSpaceOnUse"><stop offset="0" stop-color="#e7c569"/><stop offset="0.12" stop-color="#dbcc87"/><stop offset="0.3" stop-color="#ccd5ac"/><stop offset="0.48" stop-color="#c0dbc9"/><stop offset="0.66" stop-color="#b8e0dd"/><stop offset="0.83" stop-color="#b3e3ea"/><stop offset="1" stop-color="#b1e4ee"/></linearGradient><linearGradient id="Безымянный_градиент_290-2" x1="1081.79" y1="764.45" x2="1081.79" y2="515.63" xlink:href="#Безымянный_градиент_290"/><linearGradient id="Безымянный_градиент_290-3" x1="1383.08" y1="764.46" x2="1383.08" y2="492.44" xlink:href="#Безымянный_градиент_290"/><linearGradient id="Безымянный_градиент_290-4" x1="1224.82" y1="764.45" x2="1224.82" y2="439.47" xlink:href="#Безымянный_градиент_290"/><linearGradient id="Безымянный_градиент_290-5" x1="1632.18" y1="764.45" x2="1632.18" y2="399.89" xlink:href="#Безымянный_градиент_290"/><linearGradient id="Безымянный_градиент_290-6" x1="1763.26" y1="764.45" x2="1763.26" y2="493.96" xlink:href="#Безымянный_градиент_290"/><linearGradient id="Безымянный_градиент_305" x1="736.58" y1="710.3" x2="1927.4" y2="710.3" gradientUnits="userSpaceOnUse"><stop offset="0" stop-color="#d57f22"/><stop offset="1" stop-color="#870014"/></linearGradient><linearGradient id="Безымянный_градиент_252" x1="-9.4" y1="722.2" x2="1302.49" y2="722.2" gradientUnits="userSpaceOnUse"><stop offset="0" stop-color="#be4218"/><stop offset="1" stop-color="#d57f22"/></linearGradient></defs><path class="cls-1" d="M1727.76-407.39c-27,46,7.89,88.45-31.45,110.84-40.1,22.82-137.48-35.83-205.37-68.61-103-49.74-188.55-41.59-161.93,40.09,11.56,35.46,25.81,94.54-101.67,68-113.62-23.65-68.83,79.33-85.65,117.36-29,65.49-252.18-136.95-377.79-104.3-67.08,17.44-63.85,156.25-159.32,70.5-56.77-51-88.27-50.48-156-11.88-85.24,48.62-297.53-181.17-458-51.47V764.46H1927.4V-365C1850.92-407.8,1753.43-451.09,1727.76-407.39Z"/><path class="cls-2" d="M-9.4,764.46H1352.18c-31.76-37.65-98.2-84.52-214.5-65.22-57.29,9.51-117.16-56.42-181.85-55.16-81.72,1.59-84.26,32-184.54,24.85-114.11-8.17-163.38-73.3-283.47-74.15C396,594.12,374.32,633.37,261.18,628c-75.12-3.6-129.15-84.18-206.55-89.54-19.39-1.34-46.18,1.87-64,7.32Z"/><path class="cls-2" d="M1883.18,529.35c-73.69-3.36-132.94,50.26-204.28,45.39-107.45-7.32-111-57.1-197.88-66.42-99.65-10.68-155.58,47.74-263.82,37.15-80.9-7.91-98.94-49-182.14-71.29C980.53,459.55,891.05,494,836.8,485s-67.18-30.81-59.46-33.68c3.35-1.24,29.45,15.65,59.61,15.42,75.69-.59,111.93-53.43,172.88-55.27,84.31-2.55,77.18,32.63,172.51,25.44,108.47-8.18,172.23-73.67,272.38-74.84,87.33-1,107.91,38.67,215.46,33.24,71.41-3.61,122.77-84.34,196.36-89.72,18.43-1.34,43.89,1.88,60.86,7.33V538C1913.06,533.35,1896.45,530,1883.18,529.35Z"/><path class="cls-3" d="M1866.62,560.09V764.46H977.35c-.27-40.08,0-178.79,0-199.89,0-6.62,2-10.15,9.23-10.15,8.6,0,7.54.06,13.39.06,6.19,0,6.62-4,6.62-8.42,0-5.22-.07-17.26-.07-23.84,0-6.87,5.21-6.57,11-6.57l73.72,0a6,6,0,0,1,.61,0c.27,0,.54,0,.79,0s.58.07.83.14a6,6,0,0,1,1.13.29,3.18,3.18,0,0,1,1.42,1,3.65,3.65,0,0,1,.86,1.8,17.43,17.43,0,0,1,.2,3.33c0,10.27,0,28.46,0,37.44,0,1.42,1.17,5.34,5,5.34,11.13,0,37.41-.38,49.47-.38,2.6,0,6.14-2.75,6.14-5.93,0-8.24-.07-67.58-.09-99.47V446.17c0-4.22,2.44-6.69,7.07-6.69h64.41a5.7,5.7,0,0,1,5.92,5.74v23.1c.11,2.75,2.5,4.08,4.83,4.08h19.73c4,0,5.22.33,5.22,4.59,0,5.09,0,8.76,0,13,0,1.85,1.33,2.46,3.09,2.46,5.24,0,15.61,0,17.5,0,3.32,0,4.2-1.46,4.2-5V331.59a7.08,7.08,0,0,1,6.75-7.39h55.14c3.68,0,7.06,2.88,7.06,6.44v51.72a4.73,4.73,0,0,0,4.75,4.55l19,0c2.8,0,5.37-1.51,5.37-5.09V289.28c0-4.86,2.89-9.28,8.74-9.28h74.42c7.51,0,10.52,3.31,10.52,9.3V420.45c0,6.28,2.23,9.5,7.15,9.5h17.12c3.25,0,4.54-2.63,4.54-6.1V346.36c0-8.4,1.6-13.47,9.82-13.47h60.55c7,0,8.51,4.17,8.51,12.14v45.73c0,6.41,4.25,9.14,10,9.14h50.75c4.9,0,7.18.85,7.18,7.25V571.8c0,6.1,2.21,11.66,9.28,11.66h21.43c4.94,0,7.69-2.36,7.69-7.18V504.93c0-8.67,4.84-11,9.76-11h67.89c7.92,0,9.66,4.35,9.66,9.53V542c0,6.13,3.41,8,8.58,8h63.27C1861.88,550.05,1866.62,553,1866.62,560.09Z"/><path class="cls-4" d="M1481.4,289.3V764.45h-22.35V288.05c0-4.1-1.14-8.05-6.85-8.05h18.68C1478.39,280,1481.4,283.31,1481.4,289.3Z"/><path class="cls-5" d="M1097,522V764.45h-26.16V522.23c0-4,.07-6.6-4.32-6.6h24.64C1097,515.63,1097,518.43,1097,522Z"/><rect class="cls-6" x="1358.57" y="492.44" width="49.01" height="272.02"/><rect class="cls-7" x="1264.82" y="492.44" width="93.75" height="4.25" rx="1.46"/><rect class="cls-7" x="1157.63" y="452.57" width="44.94" height="8.41" rx="1.81"/><path class="cls-8" d="M1235,445.21V764.45h-16.39V444c0-1.85-.57-4.53-4-4.53h14.49A5.7,5.7,0,0,1,1235,445.21Z"/><rect class="cls-7" x="1319.82" y="386.9" width="67.91" height="5.46" rx="1.79"/><path class="cls-9" d="M1657,407.14V764.45h-43.21v-358c0-3.38-1.61-6.6-6.48-6.6h42.51C1654.75,399.89,1657,400.75,1657,407.14Z"/><path class="cls-10" d="M1782.74,503.48v261H1754V505c0-4.6-.94-11.08-10.25-11.08h29.31C1781,494,1782.74,498.3,1782.74,503.48Z"/><path class="cls-2" d="M627.21,360.76c24.43-1.82,59.17,9.81,86.82,9.79,42.59,0,47.71-20.89,85.3-23.64,36.41-2.65,52.37,23.79,77.75,26.41,37.22,3.83,51.28-13.65,82.15-20.74,35.62-8.17,91.3,14.37,111.4,23.07,4.42,1.91,2.52,3.88-1,3.33-18.09-2.88-55-17.15-94.12-9.35-31.39,6.27-51.62,33.26-88.7,32.6-29.59-.53-51.63-20.11-87.44-20.79-28.12-.54-42,8.94-83.58,8.73C682.68,390,660.67,369,629.31,370.3c-22.9.95-38.91,6.65-50.4,11-2.57,1-5.7-1.14-1.94-3.29C586.69,372.45,607,362.27,627.21,360.76Z"/><path class="cls-2" d="M378.5,414.85c22.08.8,53-5.48,77.92-5.64C494.79,409,500.07,419.78,534,421c32.89,1.15,46.42-12.71,69.2-14.23,33.42-2.23,46.65,6.78,74.69,10.27,32.35,4,81.79-8,99.62-12.7,3.92-1,2.15-2-1-1.73-16.21,1.61-49,9.27-84.5,5.46-28.49-3.07-47.57-17-81-16.41-26.64.46-45.87,10.79-78.1,11.37-25.33.45-38.12-4.39-75.6-4-29.85.29-49,11.36-77.31,10.88a228.79,228.79,0,0,1-45.76-5.41c-2.34-.49-5.1.63-1.64,1.73C341.62,409,360.21,414.19,378.5,414.85Z"/><path class="cls-11" d="M1927.4,764.46H736.58c29.76-36.12,131.59-87.82,233.78-81.41,74,4.64,98.32,42.26,188.71,38,46.48-2.17,109.62-36.59,148.81-31.15,37.93,5.27,40.7,26.08,67,30.59,30.74,5.26,51.13-19.37,76.68-24,25.87-4.71,38.06,11.07,59.63,11.63s45.72-22.79,67.31-24.48c32.28-2.53,25.7,23.91,43.54,28.52,16.52,4.27,32.42-8.4,56.71-11.35,21.5-2.62,30.38,11.53,55.37,5.06,18.68-4.83,50.65-44.84,85.67-27.58,13.6,6.7,28.55,12.69,41.84,7,22.16-9.42,40.87-33,65.75-28.69Z"/><path class="cls-12" d="M-9.4,764.46H1414.39c-11.36-12.41-72.54-54.81-139.6-54.81-41.75,0-86.5,19.75-134.17,17.06-79.64-4.51-101.8-51.78-188.23-56.15-84.22-4.27-101.15,26.79-198.77,26.6-111.09-.22-176.38-50.25-278.95-45.2-89.43,4.41-110.51,38.29-220.65,40.29-73.13,1.32-125.73-62-201.09-62-21.48,0-44.29,3.72-62.33,8.3Z"/><path class="cls-13" d="M-9.4,764.46H851.54c-20.3-22.52-111-42.06-182.29-42.06-65.19,0-73.33,14.47-144.73,14.47-71.24,0-99.12-33.55-164.93-33.55-54,0-77.7,23.4-148.34,23.4C132,726.72,72,662-9.4,684.82Z"/></svg>