<svg id="Capa_1" data-name="Capa 1" xmlns="http://www.w3.org/2000/svg" viewBox="0 0 100 100"><defs><style>.cls-1{fill:#463333;}</style></defs><path class="cls-1" d="M48,77.14a2.07,2.07,0,0,1-1.18-.38,173.6,173.6,0,0,1-21-17.58C13.41,46.93,7.15,36.08,7.15,26.93A22.64,22.64,0,0,1,48,13.47,22.64,22.64,0,0,1,88.85,26.93c0,14.1-15,29.78-27.61,40.46a2.06,2.06,0,0,1-2.67-3.15c16.86-14.3,26.15-27.55,26.15-37.31a18.51,18.51,0,0,0-34.89-8.61,2.07,2.07,0,0,1-3.66,0,18.51,18.51,0,0,0-34.89,8.61c0,15.18,22.17,35.13,36.38,45.36,2.85-3.58,3.75-6.71,2.65-9.32-2-4.68-9.59-7-13.05-7.11-7.23-.29-9.4-4.65-10.69-7.26l-.36-.72a7.09,7.09,0,0,1-.55-6c1-2.72,3.79-4.93,8.47-6.74,3.6-1.39,3.82-2.79,4.13-4.73.25-1.53.59-3.63,2.83-5.07,11.38-7.26,23.07-4.53,29.63,1.39,5.34,4.83,7,11.44,4.3,16.84-6.37,12.62-18,11.78-18.46,11.74a2.08,2.08,0,0,1-1.48-.82c-6-8-.57-17.07,3.15-20.78a2.07,2.07,0,0,1,2.92,2.93c-.34.34-7.52,7.7-3.32,14.55,2.47-.11,9.31-1.19,13.5-9.48,2.26-4.48-.27-9.09-3.39-11.91-5.38-4.87-15.09-7.06-24.62-1-.62.39-.74.8-1,2.24-.36,2.26-.91,5.68-6.72,7.93-4.32,1.67-5.7,3.28-6.09,4.34A3,3,0,0,0,29.87,46l.4.79c1.22,2.46,2.37,4.78,7.16,5,5.19.21,14.09,3.41,16.7,9.64,1.91,4.56.36,9.63-4.6,15.09A2,2,0,0,1,48,77.14Z"/><path class="cls-1" d="M43.35,39a1.36,1.36,0,0,1-.82-.28,1.38,1.38,0,0,1-.28-1.93,5.43,5.43,0,0,1,3.64-2.26,6.6,6.6,0,0,1,4.6,1.4,1.38,1.38,0,0,1-1.72,2.15,3.93,3.93,0,0,0-2.55-.81,2.66,2.66,0,0,0-1.76,1.18A1.39,1.39,0,0,1,43.35,39Z"/><path class="cls-1" d="M1.58,86.38a1.74,1.74,0,0,1,.13-.67,1.71,1.71,0,0,1,.37-.56,1.81,1.81,0,0,1,.57-.39,1.92,1.92,0,0,1,.69-.12l2.4,0a9.6,9.6,0,0,1,2.31.29,5.66,5.66,0,0,1,1.81.82A5.14,5.14,0,0,1,11.14,87a5.57,5.57,0,0,1,.75,1.76l.06.34c0,.12,0,.23.05.34s0,.23,0,.34,0,.23,0,.35a5.53,5.53,0,0,1-.44,2.14A5.15,5.15,0,0,1,10.39,94a5.19,5.19,0,0,1-1.83,1.15,6.87,6.87,0,0,1-2.29.37H3.33a1.78,1.78,0,0,1-.67-.12,1.59,1.59,0,0,1-.56-.38,1.62,1.62,0,0,1-.39-.57,1.73,1.73,0,0,1-.13-.69V86.38Zm4.34,6.16A3,3,0,0,0,7,92.38a2.71,2.71,0,0,0,.85-.51,2.45,2.45,0,0,0,.54-.77,2.18,2.18,0,0,0,.19-.93l0-.16v-.15l0-.15a.77.77,0,0,0,0-.15,2.09,2.09,0,0,0-.31-.75,2.32,2.32,0,0,0-.57-.6,2.61,2.61,0,0,0-.82-.4,3.51,3.51,0,0,0-1-.13l-.7,0v4.88Z"/><path class="cls-1" d="M13.26,92.57a4.34,4.34,0,0,1-.3-.7,4.49,4.49,0,0,1-.19-.72,5.83,5.83,0,0,1-.1-.73.14.14,0,0,1,0-.06v-.5s0,0,0,0a0,0,0,0,0,0,0c0-.13,0-.25,0-.37s0-.24,0-.36.05-.23.08-.35l.12-.37a5.15,5.15,0,0,1,.3-.69,6.68,6.68,0,0,1,.41-.67,5.36,5.36,0,0,1,.92-1,6.77,6.77,0,0,1,1.16-.79,6.06,6.06,0,0,1,1.32-.5,5.9,5.9,0,0,1,1.4-.17,6,6,0,0,1,1.4.17,6.06,6.06,0,0,1,1.32.5,6,6,0,0,1,1.15.79,5.76,5.76,0,0,1,.93,1,6,6,0,0,1,.7,1.36c.08.24.15.47.21.71a4.31,4.31,0,0,1,.09.71v0a.14.14,0,0,0,0,.06v.27a4.43,4.43,0,0,1-.07.81,6,6,0,0,1-.19.79,7.35,7.35,0,0,1-.32.77,5.15,5.15,0,0,1-.44.74,5.6,5.6,0,0,1-2.08,1.83,5.52,5.52,0,0,1-1.32.48,6,6,0,0,1-1.4.16,5.89,5.89,0,0,1-1.4-.16,5.52,5.52,0,0,1-1.32-.48,5.75,5.75,0,0,1-1.16-.78,4.89,4.89,0,0,1-.92-1h0A4.77,4.77,0,0,1,13.26,92.57Zm3-1.43a2.26,2.26,0,0,0,.51.82,2.12,2.12,0,0,0,1.64.71h.34l.11,0a2,2,0,0,0,.75-.3,2.69,2.69,0,0,0,.62-.55,2.6,2.6,0,0,0,.41-.77,2.91,2.91,0,0,0,.14-.89V90a.14.14,0,0,1,0-.06v-.06a.49.49,0,0,0,0-.12.59.59,0,0,0,0-.13,2.66,2.66,0,0,0-.28-.85,2.41,2.41,0,0,0-.53-.66,2.28,2.28,0,0,0-.7-.44,2.36,2.36,0,0,0-.8-.14,2.36,2.36,0,0,0-2.16,1.55,2.73,2.73,0,0,0-.18,1v0A2.93,2.93,0,0,0,16.31,91.14Z"/><path class="cls-1" d="M32.11,92.48l.31-.13a1.84,1.84,0,0,0,.22-.17l.17-.21H31.9a1.35,1.35,0,0,1-.61-.1,1.64,1.64,0,0,1-.5-.34,1.45,1.45,0,0,1-.33-.5,1.68,1.68,0,0,1-.11-.6,1.56,1.56,0,0,1,.11-.57,1.59,1.59,0,0,1,.35-.49A1.45,1.45,0,0,1,31.3,89a1.4,1.4,0,0,1,.58-.11l2.95,0a2.43,2.43,0,0,1,.7.12,1.23,1.23,0,0,1,.5.32,1.36,1.36,0,0,1,.32.55,2.81,2.81,0,0,1,.11.82c0,.07,0,.15,0,.23s0,.17,0,.25l0,.28c0,.09,0,.18,0,.29a.5.5,0,0,0,0,.12l0,.12a.35.35,0,0,1,0,.11l0,.12,0,.12-.06.1,0,.13-.06.12a.56.56,0,0,1,0,.12l-.06.11L35.9,93a.75.75,0,0,0-.07.12,4.75,4.75,0,0,1-.8,1.07,5,5,0,0,1-1.09.8,5.28,5.28,0,0,1-1.33.49,7,7,0,0,1-1.55.16h-.34l-.34,0-.34,0-.34,0a5.49,5.49,0,0,1-1.46-.39A5.37,5.37,0,0,1,26,93.48a5.5,5.5,0,0,1-.69-1.2c-.07-.17-.14-.35-.2-.53a3.05,3.05,0,0,1-.14-.54,3,3,0,0,1-.08-.52,4.87,4.87,0,0,1,0-.54,5.53,5.53,0,0,1,.17-1.34,5.6,5.6,0,0,1,.54-1.3,5.05,5.05,0,0,1,.87-1.15,6.55,6.55,0,0,1,1.18-1c.23-.14.48-.27.73-.39a4.82,4.82,0,0,1,.81-.28,4.57,4.57,0,0,1,.85-.17,6.66,6.66,0,0,1,.91,0h.67l.38,0,.39.06.39.09.39.11a3.54,3.54,0,0,1,.39.14l.35.16.32.16.3.16a2.88,2.88,0,0,1,.38.28c.11.09.22.18.31.27a.86.86,0,0,1,.13.14l.11.13.11.15a.61.61,0,0,1,.07.14l.09.18a1.54,1.54,0,0,1,0,.17,1.16,1.16,0,0,1,0,.18v.15a1.29,1.29,0,0,1,0,.29,1,1,0,0,1-.1.28,1,1,0,0,1-.17.25l-.23.23-.2.16-.22.1a.84.84,0,0,1-.24.06l-.25,0-.2,0-.21,0-.2-.06-.22-.07,0,0-.64-.33h0l0,0,0,0,0,0,0,0,0,0h0l0,0-.47-.18-.44-.14-.42-.07a2.69,2.69,0,0,0-.4,0,2.81,2.81,0,0,0-.89.14,2.18,2.18,0,0,0-.75.44,2.39,2.39,0,0,0-.54.68,2.75,2.75,0,0,0-.28.88.08.08,0,0,1,0,0s0,0,0,0v.13a.14.14,0,0,0,0,.06v.27a.43.43,0,0,0,0,.11.49.49,0,0,0,0,.12.59.59,0,0,0,0,.13,3,3,0,0,0,.31.87,2.24,2.24,0,0,0,.56.66,2.39,2.39,0,0,0,.74.43,2.9,2.9,0,0,0,.91.13h.4l.19,0,.2,0h0A3.62,3.62,0,0,0,32.11,92.48Z"/><path class="cls-1" d="M42.73,95.44a1.55,1.55,0,0,1-.59-.4,1.73,1.73,0,0,1-.39-.6,2.07,2.07,0,0,1-.13-.77V86.26a1.22,1.22,0,0,1,0-.32,2.58,2.58,0,0,1,.1-.33,1.54,1.54,0,0,1,.17-.31,1.39,1.39,0,0,1,.21-.27,2,2,0,0,1,.27-.22,1.82,1.82,0,0,1,.31-.16,2.13,2.13,0,0,1,.33-.11l.33,0h.16l.14,0,.14,0,.14,0,.14.06a1.82,1.82,0,0,1,.27.15.91.91,0,0,1,.24.2,1.49,1.49,0,0,1,.23.27,1.17,1.17,0,0,1,.17.31,1.35,1.35,0,0,1,.11.34,2,2,0,0,1,0,.34v6.25h2.56a1.7,1.7,0,0,1,.57.12,1.58,1.58,0,0,1,.48.33,1.81,1.81,0,0,1,.33.5,1.54,1.54,0,0,1,.11.58h0a1.59,1.59,0,0,1-.13.59,1.39,1.39,0,0,1-.32.48,1.4,1.4,0,0,1-1,.41H43.46A2.15,2.15,0,0,1,42.73,95.44Z"/><path class="cls-1" d="M49.87,92.57a4.34,4.34,0,0,1-.3-.7,4.49,4.49,0,0,1-.19-.72,5.83,5.83,0,0,1-.1-.73.14.14,0,0,1,0-.06v-.5s0,0,0,0a0,0,0,0,0,0,0c0-.13,0-.25,0-.37s0-.24,0-.36.05-.23.08-.35l.12-.37a5.15,5.15,0,0,1,.3-.69,6.68,6.68,0,0,1,.41-.67,5.36,5.36,0,0,1,.92-1,6.77,6.77,0,0,1,1.16-.79,6.06,6.06,0,0,1,1.32-.5,5.9,5.9,0,0,1,1.4-.17,6,6,0,0,1,1.4.17,5.87,5.87,0,0,1,1.32.5,6.4,6.4,0,0,1,1.16.79,6.11,6.11,0,0,1,.92,1,6,6,0,0,1,.7,1.36,6.29,6.29,0,0,1,.2.71,3.47,3.47,0,0,1,.1.71v0a.14.14,0,0,0,0,.06v.27a4.43,4.43,0,0,1-.07.81c0,.26-.11.52-.19.79a7.35,7.35,0,0,1-.32.77,5.15,5.15,0,0,1-.44.74,5.4,5.4,0,0,1-2.08,1.83,5.37,5.37,0,0,1-1.32.48,6,6,0,0,1-1.4.16,5.89,5.89,0,0,1-1.4-.16,5.52,5.52,0,0,1-1.32-.48,5.75,5.75,0,0,1-1.16-.78,4.89,4.89,0,0,1-.92-1h0A4.77,4.77,0,0,1,49.87,92.57Zm3.05-1.43a2.26,2.26,0,0,0,.51.82,2.12,2.12,0,0,0,1.64.71h.34l.11,0a1.91,1.91,0,0,0,.75-.3,2.69,2.69,0,0,0,.62-.55A2.6,2.6,0,0,0,57.3,91a2.91,2.91,0,0,0,.14-.89V90a.07.07,0,0,1,0-.06v-.06a.49.49,0,0,0,0-.12.59.59,0,0,0,0-.13,2.66,2.66,0,0,0-.28-.85,2.57,2.57,0,0,0-.52-.66,2.45,2.45,0,0,0-.71-.44,2.36,2.36,0,0,0-.8-.14,2.36,2.36,0,0,0-2.16,1.55,2.73,2.73,0,0,0-.18,1v0A2.93,2.93,0,0,0,52.92,91.14Z"/><path class="cls-1" d="M62.06,84.67l0,0h0a.05.05,0,0,0,0,0l.1,0,.11,0h.4a1.68,1.68,0,0,1,.5.07,1.86,1.86,0,0,1,.47.23,1.67,1.67,0,0,1,.39.36,2.37,2.37,0,0,1,.26.47l1.78,4.91L68,85.64a2.05,2.05,0,0,1,.25-.46,1.67,1.67,0,0,1,.39-.36,1.86,1.86,0,0,1,.47-.23,1.77,1.77,0,0,1,.52-.07h.29l.09,0,.19,0,.2.09a1.62,1.62,0,0,1,.43.29,1.7,1.7,0,0,1,.32.38,2,2,0,0,1,.19.42,1.83,1.83,0,0,1,.07.46c0,.06,0,.12,0,.17s0,.11,0,.16,0,.1-.05.16l-.06.16-3.4,7.63a2.56,2.56,0,0,1-.23.44,2.22,2.22,0,0,1-.24.32,1.32,1.32,0,0,1-.29.21,1.75,1.75,0,0,1-.32.12l-.16,0-.16,0-.15,0h-.15a1.65,1.65,0,0,1-.51-.08,2.78,2.78,0,0,1-.44-.19,2.23,2.23,0,0,1-.37-.38,2.62,2.62,0,0,1-.3-.52l-3.4-7.65a.06.06,0,0,0,0-.06l0-.08a.29.29,0,0,1,0-.09s0-.06,0-.09v0a.17.17,0,0,0,0-.05v-.12a.11.11,0,0,0,0-.05v-.07a1.84,1.84,0,0,1,.06-.47,2.41,2.41,0,0,1,.18-.43,1.35,1.35,0,0,1,.3-.37A1.88,1.88,0,0,1,62,84.7v0Z"/><path class="cls-1" d="M71.84,94.29a1.09,1.09,0,0,0,0-.17.88.88,0,0,1,0-.16,1.09,1.09,0,0,1,0-.18v-7.4a1.72,1.72,0,0,1,.13-.68,1.76,1.76,0,0,1,.37-.56,1.63,1.63,0,0,1,.57-.38,1.92,1.92,0,0,1,.69-.12l4.18,0a1.39,1.39,0,0,1,.55.13,1.87,1.87,0,0,1,.48.33,1.76,1.76,0,0,1,.33.49,1.41,1.41,0,0,1,.11.59,1.44,1.44,0,0,1-.11.59,1.81,1.81,0,0,1-.33.5,1.41,1.41,0,0,1-.49.33,1.56,1.56,0,0,1-.57.11h-2.4v.92h2l.32.05a1.81,1.81,0,0,1,.31.09l.29.14a1.64,1.64,0,0,1,.25.21,1,1,0,0,1,.17.19,1.18,1.18,0,0,1,.14.22.61.61,0,0,1,0,.12s0,.08,0,.1l0,.13,0,.12v.14a1.26,1.26,0,0,1-.05.28,1.31,1.31,0,0,1-.09.28c0,.09-.08.17-.13.26a1,1,0,0,1-.2.22,2.48,2.48,0,0,1-.26.19l-.29.13-.29.09a1.53,1.53,0,0,1-.3,0h-2v.94h2.28l.32,0a1.92,1.92,0,0,1,.32.09l.29.14a1.64,1.64,0,0,1,.25.21,1.7,1.7,0,0,1,.19.19l.13.23a1.3,1.3,0,0,1,.1.25,1.23,1.23,0,0,1,0,.25v.14a1.36,1.36,0,0,1,0,.29,1.43,1.43,0,0,1-.09.27,2.1,2.1,0,0,1-.13.26,1.43,1.43,0,0,1-.2.23,2.48,2.48,0,0,1-.26.19l-.29.14-.29.09-.32,0H73.51a1.59,1.59,0,0,1-.48-.07,1.76,1.76,0,0,1-.46-.22,1.35,1.35,0,0,1-.39-.36,2.09,2.09,0,0,1-.28-.46v0A1,1,0,0,1,71.84,94.29Z"/><path class="cls-1" d="M80.91,95.55a2.06,2.06,0,0,1-.57-.37,1.63,1.63,0,0,1-.38-.57,1.68,1.68,0,0,1-.13-.68V86.46a2.27,2.27,0,0,1,.11-.75,1.54,1.54,0,0,1,.36-.57,1.47,1.47,0,0,1,.57-.38,2.11,2.11,0,0,1,.73-.12l3.33,0a5.75,5.75,0,0,1,1.44.2,3.36,3.36,0,0,1,1.14.55,3,3,0,0,1,.82.85,3.65,3.65,0,0,1,.48,1.12c0,.08,0,.16,0,.24s0,.17,0,.25,0,.16,0,.24,0,.16,0,.24a4.07,4.07,0,0,1-.07.71,3.2,3.2,0,0,1-.21.64,3.49,3.49,0,0,1-.32.57,2.79,2.79,0,0,1-.44.47l-.06,0-.35.28-.21.16,1.29,1.7.17.28a1.59,1.59,0,0,1,.12.27.58.58,0,0,1,.05.14l0,.14v.14a.61.61,0,0,1,0,.14,1.92,1.92,0,0,1,0,.41,1.77,1.77,0,0,1-.15.38,1.59,1.59,0,0,1-.22.35,2.14,2.14,0,0,1-.32.28l-.16.1-.18,0-.17.07-.16.05h0a0,0,0,0,0,0,0h-.26a1.54,1.54,0,0,1-.43-.06,2.85,2.85,0,0,1-.42-.17,2.55,2.55,0,0,1-.39-.3,2.22,2.22,0,0,1-.36-.43L83.32,91.4V94a1.62,1.62,0,0,1-.13.68,1.55,1.55,0,0,1-.39.55,1.6,1.6,0,0,1-.57.37,1.76,1.76,0,0,1-.66.12v0A2,2,0,0,1,80.91,95.55ZM84.8,89a.38.38,0,0,0,.23,0,.52.52,0,0,0,.21-.13.57.57,0,0,0,.13-.21.66.66,0,0,0,0-.25h0v-.06a.86.86,0,0,0-.06-.23.82.82,0,0,0-.12-.2l-.19-.12a.41.41,0,0,0-.19,0l-1.52,0V89Z"/><path class="cls-1" d="M90.29,95l-.07,0-.09-.06-.06-.07a1.91,1.91,0,0,1-.33-.27,1.42,1.42,0,0,1-.21-.29,1.33,1.33,0,0,1-.11-.32,2.22,2.22,0,0,1,0-.38v-.06h0v0a1,1,0,0,1,0-.24,1.74,1.74,0,0,1,0-.22,1.18,1.18,0,0,1,.07-.2,1.74,1.74,0,0,1,.11-.18,2.47,2.47,0,0,1,.24-.29.82.82,0,0,1,.25-.21A1.09,1.09,0,0,1,90.4,92a1.69,1.69,0,0,1,.33,0h.13l.06,0H91l.13,0,.14,0,.67.17.61.15.44.11.16.05a.11.11,0,0,0,.07,0h.13l0,0h0l.16,0h.5l.12,0h.09l.09,0,.07,0,0,0h0l0,0,0,0h0s0,0,0,0l0,0,0,0,.07-.06a.21.21,0,0,0,0-.06.14.14,0,0,0,0-.07.19.19,0,0,0,0-.08.14.14,0,0,1,0-.07s0,0,0-.07l0,0s0,0,0,0h0l0,0,0,0h-.06l0,0-.29-.1-.2-.06-.8-.2-.16,0-1-.29a2.55,2.55,0,0,1-.44-.12,3,3,0,0,1-.36-.14L91,90.76l-.28-.15a2.74,2.74,0,0,1-.55-.46,2.39,2.39,0,0,1-.4-.58,2.64,2.64,0,0,1-.25-.66,2.69,2.69,0,0,1-.09-.7v-.15a.59.59,0,0,1,0-.13.76.76,0,0,1,0-.15l0-.15a2.26,2.26,0,0,1,.11-.43,3.79,3.79,0,0,1,.18-.42,2.5,2.5,0,0,1,.25-.41c.09-.13.19-.26.3-.4a4.3,4.3,0,0,1,.55-.48,3.68,3.68,0,0,1,.7-.41,6.81,6.81,0,0,1,.83-.32,6.53,6.53,0,0,1,.94-.18h.06l0,0h.14l.06,0h.91l.41,0a2.57,2.57,0,0,1,.4.06l.39.11a6.7,6.7,0,0,1,.77.28,2.46,2.46,0,0,1,.52.31,1.45,1.45,0,0,1,.35.35,1.35,1.35,0,0,1,.2.42.35.35,0,0,1,0,.13l0,.15v.07a.17.17,0,0,0,0,.07v.12a1.7,1.7,0,0,1,0,.22,1.74,1.74,0,0,1-.05.22,1.07,1.07,0,0,1-.07.19c0,.06-.07.12-.11.17a1.37,1.37,0,0,1-.24.29,2.12,2.12,0,0,1-.28.2,1,1,0,0,1-.3.11,1.4,1.4,0,0,1-.37,0h-.21l-.23,0-.23,0L95.32,88l-.12-.06-.44-.14-.18,0-.43-.1-.21,0-.15,0,0,0h-.06s0,0,0,0h-.39l-.11,0-.11,0-.08,0-.05.07,0,.07,0,.06V88l0,.05,0,0,0,0,0,0,0,0,.06,0,.08,0,.74.18.46.11.12,0,.88.25.38.13a1.51,1.51,0,0,1,.34.13l.16.06.16.06.15.07.13.06a3.27,3.27,0,0,1,.73.51,3,3,0,0,1,.52.65,3.73,3.73,0,0,1,.33.74,3,3,0,0,1,.11.79v.14a.25.25,0,0,0,0,.08v.07l0,.13v.15a3.38,3.38,0,0,1-.13.42c0,.14-.1.28-.16.43l-.23.4a3.27,3.27,0,0,1-.29.39,4,4,0,0,1-.71.66,5.71,5.71,0,0,1-.88.49,4.66,4.66,0,0,1-1,.29,7.72,7.72,0,0,1-1.23.09h-.15l-.08,0h-.42l-.91-.08a5.07,5.07,0,0,1-.75-.13,3.33,3.33,0,0,1-.58-.18,2.48,2.48,0,0,1-.43-.2v0Z"/></svg>